<svg width="1440" height="675" viewBox="0 0 1440 675" fill="none" xmlns="http://www.w3.org/2000/svg">
<mask id="mask0_138_160" style="mask-type:alpha" maskUnits="userSpaceOnUse" x="0" y="-34" width="1440" height="709">
<rect width="1440" height="709" transform="translate(0 -34)" fill="white"/>
</mask>
<g mask="url(#mask0_138_160)">
<g opacity="0.6">
<path opacity="0.1" d="M1130.43 498.263C1180.26 533.195 1249.39 519.516 1284.85 467.709C1320.3 415.902 1308.64 345.585 1258.82 310.653C1208.99 275.72 1139.86 289.4 1104.4 341.207C1068.95 393.014 1080.61 463.33 1130.43 498.263Z" stroke="#F2994A" stroke-width="4"/>
<path opacity="0.228571" d="M1303.73 353.611C1377.06 380.699 1459.5 341.347 1487.87 265.715C1516.23 190.083 1479.78 106.811 1406.45 79.7231C1333.12 52.6348 1250.68 91.9874 1222.31 167.62C1193.95 243.252 1230.4 326.523 1303.73 353.611Z" stroke="#E49976" stroke-width="5.71429"/>
<path opacity="0.357143" d="M1418.35 189.689C1513.76 198.963 1600.41 127.238 1611.89 29.4878C1623.37 -68.2626 1555.33 -155.023 1459.92 -164.297C1364.51 -173.571 1277.86 -101.847 1266.38 -4.09628C1254.9 93.6541 1322.94 180.415 1418.35 189.689Z" stroke="#D49896" stroke-width="7.42857"/>
<path opacity="0.485714" d="M1476.17 26.2087C1588.79 8.32376 1668.19 -99.1215 1653.51 -213.777C1638.83 -328.432 1535.64 -406.88 1423.02 -388.995C1310.41 -371.11 1231.01 -263.665 1245.69 -149.01C1260.36 -34.3543 1363.56 44.0937 1476.17 26.2087Z" stroke="#F1BE90" stroke-width="9.14286"/>
</g>
<g opacity="0.6">
<path opacity="0.357143" d="M-273.557 574.148C-243.826 665.279 -143.393 715.932 -49.2329 687.283C44.9274 658.635 97.1581 561.534 67.4279 470.402C37.6977 379.27 -62.7354 328.618 -156.896 357.266C-251.056 385.915 -303.287 483.016 -273.557 574.148Z" stroke="#D49896" stroke-width="7.42857"/>
<path opacity="0.485714" d="M-100.606 561.623C-39.097 657.639 91.1581 687.334 190.327 627.947C289.496 568.561 320.026 442.582 258.518 346.566C197.01 250.55 66.7545 220.856 -32.4147 280.242C-131.584 339.628 -162.114 465.607 -100.606 561.623Z" stroke="#F1BE90" stroke-width="9.14286"/>
<path opacity="0.614286" d="M36.5443 510.934C133.556 601.387 287.896 598.722 381.27 504.98C474.645 411.238 471.697 261.919 374.685 171.465C277.673 81.0119 123.333 83.6774 29.9584 177.419C-63.4165 271.161 -60.4679 420.48 36.5443 510.934Z" stroke="#B298C7" stroke-width="10.8571"/>
</g>
</g>
</svg>
