<svg width="234" height="80" viewBox="0 0 234 80" fill="none" xmlns="http://www.w3.org/2000/svg">
<path d="M0 75.1448V0H21.5817V10.6624H11.5295V64.4824H21.5817V75.1448H0Z" fill="#F2994A"/>
<path d="M72.0744 75.1448H50.4927V64.4824H60.5449V10.6624H50.4927V0H72.0744V75.1448Z" fill="#F2994A"/>
<path d="M88.3058 28.9772C87.0447 28.9772 85.9518 28.6931 85.0271 28.1249C84.1023 27.5446 83.3937 26.6984 82.9013 25.5862C82.4209 24.4619 82.1807 23.0717 82.1807 21.4155H83.5138C83.5138 22.3706 83.718 23.1805 84.1263 23.8454C84.5347 24.4982 85.0691 24.9999 85.7296 25.3505C86.4022 25.689 87.1168 25.8582 87.8734 25.8582C88.6661 25.8582 89.4347 25.6346 90.1793 25.1873C90.9359 24.7279 91.5544 24.0449 92.0348 23.1382C92.5152 22.2315 92.7554 21.1073 92.7554 19.7654C92.7554 18.484 92.5392 17.3899 92.1069 16.4833C91.6865 15.5766 91.1101 14.8815 90.3775 14.3979C89.6449 13.9144 88.8222 13.6726 87.9094 13.6726C87.1408 13.6726 86.4202 13.86 85.7477 14.2347C85.0751 14.5974 84.5347 15.1353 84.1263 15.8486C83.718 16.5497 83.5138 17.4081 83.5138 18.4235H82.1807C82.1807 16.6706 82.457 15.2139 83.0094 14.0534C83.5739 12.8928 84.3305 12.0285 85.2793 11.4603C86.2281 10.88 87.2789 10.5899 88.4319 10.5899C89.789 10.5899 91.062 10.9586 92.251 11.696C93.44 12.4214 94.4008 13.4671 95.1334 14.8331C95.878 16.1992 96.2503 17.8433 96.2503 19.7654C96.2503 21.6875 95.878 23.3377 95.1334 24.7158C94.3888 26.094 93.41 27.1517 92.197 27.8892C90.996 28.6145 89.6989 28.9772 88.3058 28.9772ZM80.091 37.0647V11.0614H82.9193L83.5138 15.2502V37.0647H80.091Z" fill="#F2994A"/>
<path d="M104.166 28.9772C102.677 28.9772 101.332 28.5903 100.131 27.8166C98.9298 27.0429 97.975 25.967 97.2664 24.5889C96.5699 23.2107 96.2216 21.615 96.2216 19.8017C96.2216 17.8795 96.5699 16.2354 97.2664 14.8694C97.963 13.4912 98.9118 12.4335 100.113 11.696C101.314 10.9586 102.665 10.5899 104.166 10.5899C105.511 10.5899 106.664 10.8679 107.625 11.424C108.586 11.968 109.36 12.7055 109.949 13.6363C110.537 14.5551 110.94 15.6008 111.156 16.7734C111.384 17.946 111.426 19.1549 111.282 20.4001H98.9598V18.4054H108.94L108.111 18.9494C108.147 18.2966 108.111 17.6438 108.003 16.991C107.907 16.3382 107.715 15.7398 107.427 15.1958C107.139 14.6397 106.73 14.1984 106.202 13.872C105.685 13.5336 105.025 13.3643 104.22 13.3643C103.211 13.3643 102.365 13.6182 101.68 14.1259C101.008 14.6336 100.497 15.3167 100.149 16.175C99.8005 17.0212 99.6264 17.9521 99.6264 18.9675V20.3638C99.6264 21.4881 99.7945 22.4854 100.131 23.3558C100.467 24.2262 100.965 24.9153 101.626 25.423C102.299 25.9187 103.145 26.1665 104.166 26.1665C105.163 26.1665 105.986 25.9308 106.634 25.4593C107.295 24.9878 107.703 24.2806 107.859 23.3377H111.354C111.174 24.474 110.76 25.4653 110.111 26.3116C109.462 27.1578 108.628 27.8166 107.607 28.2881C106.598 28.7475 105.451 28.9772 104.166 28.9772Z" fill="#F2994A"/>
<path d="M125.244 28.5057V18.2785C125.244 16.7673 124.883 15.6249 124.163 14.8512C123.454 14.0655 122.493 13.6726 121.28 13.6726C120.32 13.6726 119.479 13.9385 118.758 14.4704C118.05 14.9903 117.497 15.7579 117.101 16.7734C116.717 17.7768 116.525 19.0038 116.525 20.4545H115.3C115.3 18.3147 115.57 16.5135 116.11 15.0507C116.663 13.588 117.449 12.4818 118.47 11.7323C119.491 10.9707 120.716 10.5899 122.145 10.5899C123.538 10.5899 124.715 10.9042 125.676 11.5328C126.649 12.1615 127.387 13.056 127.892 14.2166C128.396 15.365 128.649 16.719 128.649 18.2785V28.5057H125.244ZM113.102 28.5057V11.0614H116.074L116.525 14.8331V28.5057H113.102Z" fill="#F2994A"/>
<path d="M149.585 28.9772C148.024 28.9772 146.588 28.6991 145.279 28.143C143.97 27.5748 142.913 26.7347 142.109 25.6225C141.316 24.5103 140.902 23.1201 140.866 21.4518H144.216C144.216 22.4552 144.457 23.2772 144.937 23.9179C145.429 24.5587 146.078 25.0362 146.883 25.3505C147.687 25.6527 148.576 25.8038 149.549 25.8038C150.534 25.8038 151.404 25.6527 152.161 25.3505C152.918 25.0483 153.5 24.6433 153.908 24.1355C154.329 23.6278 154.539 23.0475 154.539 22.3947C154.539 21.5123 154.269 20.805 153.728 20.2731C153.188 19.7291 152.365 19.2698 151.26 18.895L146.991 17.2993C145.153 16.6102 143.754 15.8184 142.793 14.9238C141.832 14.0171 141.352 12.7599 141.352 11.152C141.352 9.32661 142.061 7.84572 143.478 6.70936C144.895 5.56091 146.889 4.98668 149.459 4.98668C151.897 4.98668 153.788 5.55486 155.133 6.69122C156.49 7.82758 157.265 9.37496 157.457 11.3334H154.089C153.92 10.3421 153.458 9.5563 152.701 8.97603C151.957 8.39576 150.876 8.10563 149.459 8.10563C148.09 8.10563 147.021 8.40785 146.252 9.0123C145.483 9.60465 145.099 10.3542 145.099 11.2608C145.099 12.0104 145.339 12.6088 145.82 13.056C146.312 13.5033 147.075 13.9083 148.108 14.271L152.972 16.0662C154.641 16.6585 155.944 17.4564 156.881 18.4598C157.818 19.4632 158.286 20.7386 158.286 22.2859C158.286 23.5915 157.95 24.746 157.277 25.7494C156.605 26.7528 155.62 27.5446 154.323 28.1249C153.026 28.6931 151.446 28.9772 149.585 28.9772Z" fill="#F2994A"/>
<path d="M167.137 28.9772C165.564 28.9772 164.153 28.6326 162.904 27.9436C161.667 27.2545 160.688 26.2269 159.967 24.8609C159.247 23.4948 158.886 21.8084 158.886 19.8017C158.886 17.7586 159.247 16.0601 159.967 14.7062C160.688 13.3401 161.667 12.3126 162.904 11.6235C164.153 10.9344 165.564 10.5899 167.137 10.5899C168.686 10.5899 170.08 10.9344 171.317 11.6235C172.554 12.3126 173.526 13.3401 174.235 14.7062C174.956 16.0601 175.316 17.7586 175.316 19.8017C175.316 21.8084 174.956 23.4948 174.235 24.8609C173.526 26.2269 172.554 27.2545 171.317 27.9436C170.08 28.6326 168.686 28.9772 167.137 28.9772ZM167.029 25.967C168.026 25.967 168.885 25.7252 169.605 25.2417C170.338 24.7581 170.896 24.057 171.281 23.1382C171.677 22.2074 171.875 21.0952 171.875 19.8017C171.875 17.8191 171.473 16.2838 170.668 15.1958C169.875 14.1078 168.728 13.5638 167.227 13.5638C166.218 13.5638 165.348 13.8116 164.615 14.3072C163.894 14.7908 163.336 15.498 162.94 16.4289C162.555 17.3476 162.363 18.4719 162.363 19.8017C162.363 21.748 162.766 23.2651 163.57 24.3531C164.375 25.4291 165.528 25.967 167.029 25.967Z" fill="#F2994A"/>
<path d="M188.672 11.007H192.112V28.5057H188.672V11.007ZM176.566 11.007H179.988V21.8145C179.988 23.1322 180.307 24.1295 180.943 24.8065C181.592 25.4835 182.499 25.822 183.663 25.822C184.648 25.822 185.513 25.562 186.258 25.0422C187.014 24.5224 187.603 23.785 188.023 22.8299C188.455 21.8749 188.672 20.7446 188.672 19.439H189.77C189.77 21.482 189.494 23.1987 188.942 24.5889C188.389 25.9791 187.615 27.0369 186.618 27.7622C185.621 28.4755 184.456 28.8321 183.123 28.8321C181.85 28.8321 180.715 28.5964 179.718 28.1249C178.733 27.6534 177.959 26.9281 177.394 25.9489C176.842 24.9576 176.566 23.6822 176.566 22.1227V11.007Z" fill="#F2994A"/>
<path d="M195.527 28.5057V11.007H198.949V28.5057H195.527ZM198.013 20.7083C198.013 18.4719 198.241 16.6162 198.697 15.1414C199.165 13.6544 199.814 12.5483 200.643 11.823C201.483 11.0976 202.468 10.735 203.597 10.735C203.933 10.735 204.246 10.7591 204.534 10.8075C204.834 10.8559 205.128 10.9223 205.417 11.007L205.291 14.4342C204.966 14.3496 204.612 14.277 204.228 14.2166C203.855 14.144 203.513 14.1078 203.201 14.1078C202.216 14.1078 201.411 14.3737 200.787 14.9056C200.162 15.4255 199.7 16.181 199.4 17.1723C199.099 18.1515 198.949 19.3302 198.949 20.7083H198.013Z" fill="#F2994A"/>
<path d="M211.705 28.9772C210.287 28.9772 208.966 28.5964 207.741 27.8348C206.516 27.0732 205.532 26.0033 204.787 24.6252C204.042 23.247 203.67 21.6271 203.67 19.7654C203.67 17.807 204.042 16.1508 204.787 14.7968C205.532 13.4308 206.516 12.3912 207.741 11.6779C208.966 10.9526 210.287 10.5899 211.705 10.5899C212.749 10.5899 213.68 10.7591 214.497 11.0976C215.314 11.424 216.016 11.8713 216.605 12.4395C217.193 12.9956 217.668 13.6242 218.028 14.3254C218.4 15.0265 218.658 15.7519 218.802 16.5014L215.326 16.6827C215.073 15.7761 214.629 15.0507 213.993 14.5067C213.368 13.9506 212.593 13.6726 211.669 13.6726C210.888 13.6726 210.149 13.8962 209.453 14.3435C208.768 14.7787 208.21 15.4497 207.777 16.3563C207.357 17.2509 207.147 18.3873 207.147 19.7654C207.147 21.0468 207.345 22.1409 207.741 23.0475C208.138 23.9542 208.678 24.6493 209.363 25.1329C210.047 25.6164 210.816 25.8582 211.669 25.8582C212.894 25.8582 213.806 25.562 214.407 24.9697C215.019 24.3652 215.326 23.5371 215.326 22.4854H218.802C218.802 23.7064 218.52 24.8065 217.956 25.7857C217.391 26.7649 216.575 27.5446 215.506 28.1249C214.449 28.6931 213.182 28.9772 211.705 28.9772Z" fill="#F2994A"/>
<path d="M226.8 28.9772C225.311 28.9772 223.966 28.5903 222.765 27.8166C221.564 27.0429 220.609 25.967 219.901 24.5889C219.204 23.2107 218.856 21.615 218.856 19.8017C218.856 17.8795 219.204 16.2354 219.901 14.8694C220.597 13.4912 221.546 12.4335 222.747 11.696C223.948 10.9586 225.299 10.5899 226.8 10.5899C228.146 10.5899 229.299 10.8679 230.259 11.424C231.22 11.968 231.995 12.7055 232.583 13.6363C233.172 14.5551 233.574 15.6008 233.79 16.7734C234.018 17.946 234.06 19.1549 233.916 20.4001H221.594V18.4054H231.574L230.746 18.9494C230.782 18.2966 230.746 17.6438 230.638 16.991C230.542 16.3382 230.349 15.7398 230.061 15.1958C229.773 14.6397 229.365 14.1984 228.836 13.872C228.32 13.5336 227.659 13.3643 226.855 13.3643C225.846 13.3643 224.999 13.6182 224.314 14.1259C223.642 14.6336 223.131 15.3167 222.783 16.175C222.435 17.0212 222.261 17.9521 222.261 18.9675V20.3638C222.261 21.4881 222.429 22.4854 222.765 23.3558C223.101 24.2262 223.6 24.9153 224.26 25.423C224.933 25.9187 225.78 26.1665 226.8 26.1665C227.797 26.1665 228.62 25.9308 229.269 25.4593C229.929 24.9878 230.337 24.2806 230.494 23.3377H233.988C233.808 24.474 233.394 25.4653 232.745 26.3116C232.097 27.1578 231.262 27.8166 230.241 28.2881C229.232 28.7475 228.086 28.9772 226.8 28.9772Z" fill="#F2994A"/>
<path d="M80.091 71.0058V47.9039H88.3058C90.984 47.9039 93.0196 48.5446 94.4128 49.826C95.8179 51.0954 96.5205 52.7697 96.5205 54.849C96.5205 56.9041 95.8179 58.5663 94.4128 59.8357C93.0196 61.105 90.984 61.7397 88.3058 61.7397H83.5138V71.0058H80.091ZM92.7554 71.0058L86.3962 60.3797H90.0892L97.2051 71.0058H92.7554ZM83.5138 59.3823H87.9995C89.6329 59.3823 90.8759 58.9894 91.7286 58.2037C92.5813 57.4058 93.0076 56.3782 93.0076 55.121C93.0076 53.8275 92.6053 52.7999 91.8006 52.0383C91.008 51.2646 89.843 50.8778 88.3058 50.8778H83.5138V59.3823Z" fill="white"/>
<path d="M103.726 49.8442C103.041 49.8442 102.501 49.6568 102.104 49.282C101.72 48.8952 101.528 48.3754 101.528 47.7226C101.528 47.0939 101.72 46.5983 102.104 46.2356C102.501 45.8609 103.041 45.6735 103.726 45.6735C104.398 45.6735 104.927 45.8609 105.311 46.2356C105.707 46.5983 105.905 47.0939 105.905 47.7226C105.905 48.3754 105.707 48.8952 105.311 49.282C104.927 49.6568 104.398 49.8442 103.726 49.8442ZM102.014 71.0058V53.5071H105.437V71.0058H102.014Z" fill="white"/>
<path d="M113.005 71.0058V51.1135C113.005 49.9046 113.233 48.9254 113.689 48.1759C114.158 47.4143 114.776 46.8522 115.545 46.4895C116.314 46.1268 117.16 45.9455 118.085 45.9455C118.614 45.9455 119.154 45.9818 119.706 46.0543C120.271 46.1268 120.823 46.2356 121.364 46.3807L120.715 49.0644C120.379 48.9435 120.037 48.8468 119.688 48.7743C119.352 48.7018 119.028 48.6655 118.716 48.6655C118.343 48.6655 117.983 48.738 117.635 48.8831C117.286 49.0161 116.998 49.2639 116.77 49.6266C116.554 49.9892 116.446 50.503 116.446 51.1679V71.0058H113.005ZM110.285 55.9007V53.5615H119.851V55.9007H110.285Z" fill="white"/>
<path d="M129.4 71.4773C128.415 71.4773 127.526 71.2899 126.734 70.9152C125.941 70.5404 125.31 69.9783 124.842 69.2288C124.386 68.4672 124.157 67.5121 124.157 66.3637V48.8106H127.562V66.2549C127.562 67.899 128.325 68.721 129.85 68.721C130.319 68.721 130.775 68.6727 131.219 68.576C131.664 68.4672 132.168 68.31 132.733 68.1045L133.219 70.5525C132.582 70.8185 131.952 71.0361 131.327 71.2053C130.715 71.3866 130.072 71.4773 129.4 71.4773ZM121.509 55.9007V53.5615H132.696V55.9007H121.509Z" fill="white"/>
<path d="M151.375 67.2885L157.771 47.9039H161.392L153.339 71.0058H149.754L141.791 47.9039H145.43L151.772 67.2885H151.375Z" fill="white"/>
<path d="M174.181 71.0058L173.749 66.9984V59.7269C173.749 58.3004 173.454 57.2668 172.866 56.6261C172.277 55.9733 171.347 55.6469 170.074 55.6469C169.353 55.6469 168.71 55.7557 168.146 55.9733C167.594 56.1788 167.155 56.4931 166.831 56.9162C166.519 57.3393 166.363 57.8712 166.363 58.5119H162.579C162.579 57.2305 162.892 56.1909 163.516 55.393C164.141 54.5951 165.011 54.0148 166.128 53.6522C167.257 53.2774 168.572 53.09 170.074 53.09C171.479 53.09 172.716 53.3258 173.785 53.7972C174.853 54.2566 175.682 54.982 176.271 55.9733C176.871 56.9645 177.171 58.246 177.171 59.8175V71.0058H174.181ZM168.38 71.4773C166.927 71.4773 165.72 71.2234 164.759 70.7157C163.798 70.1959 163.078 69.5189 162.597 68.6848C162.129 67.8506 161.895 66.9621 161.895 66.0192C161.895 64.8707 162.183 63.9278 162.76 63.1903C163.348 62.4408 164.159 61.8847 165.192 61.5221C166.224 61.1594 167.413 60.9781 168.758 60.9781C169.683 60.9781 170.584 61.0627 171.461 61.2319C172.337 61.4012 173.202 61.6248 174.055 61.9029V63.9882C173.358 63.7343 172.584 63.5349 171.731 63.3898C170.89 63.2327 170.104 63.1541 169.371 63.1541C168.278 63.1541 167.365 63.3717 166.633 63.8069C165.9 64.2421 165.534 64.9795 165.534 66.0192C165.534 66.7808 165.822 67.4396 166.399 67.9957C166.975 68.5397 167.888 68.8117 169.137 68.8117C170.05 68.8117 170.854 68.6062 171.551 68.1952C172.247 67.7721 172.788 67.2462 173.172 66.6176C173.556 65.9889 173.749 65.3603 173.749 64.7317H174.577C174.577 65.9406 174.331 67.0588 173.839 68.0864C173.358 69.1018 172.656 69.9239 171.731 70.5525C170.806 71.169 169.689 71.4773 168.38 71.4773Z" fill="white"/>
<path d="M182.789 71.0058V46.2175H186.212V71.0058H182.789Z" fill="white"/>
<path d="M192.339 71.0058V46.2175H195.762V71.0058H192.339Z" fill="white"/>
<path d="M208.103 71.4773C206.614 71.4773 205.269 71.0905 204.068 70.3168C202.867 69.5431 201.912 68.4672 201.203 67.089C200.507 65.7109 200.159 64.1151 200.159 62.3018C200.159 60.3797 200.507 58.7356 201.203 57.3695C201.9 55.9914 202.849 54.9336 204.05 54.1962C205.251 53.4588 206.602 53.09 208.103 53.09C209.448 53.09 210.601 53.3681 211.562 53.9242C212.523 54.4682 213.297 55.2056 213.886 56.1365C214.474 57.0552 214.877 58.1009 215.093 59.2735C215.321 60.4462 215.363 61.6551 215.219 62.9002H202.897V60.9055H212.877L212.048 61.4495C212.084 60.7967 212.048 60.1439 211.94 59.4911C211.844 58.8383 211.652 58.2399 211.364 57.6959C211.076 57.1398 210.667 56.6986 210.139 56.3722C209.622 56.0337 208.962 55.8645 208.157 55.8645C207.148 55.8645 206.302 56.1183 205.617 56.6261C204.945 57.1338 204.434 57.8168 204.086 58.6751C203.738 59.5214 203.563 60.4522 203.563 61.4677V62.8639C203.563 63.9882 203.731 64.9856 204.068 65.856C204.404 66.7264 204.902 67.4154 205.563 67.9232C206.236 68.4188 207.082 68.6666 208.103 68.6666C209.1 68.6666 209.923 68.4309 210.571 67.9594C211.232 67.488 211.64 66.7808 211.796 65.8378H215.291C215.111 66.9742 214.697 67.9655 214.048 68.8117C213.399 69.6579 212.565 70.3168 211.544 70.7882C210.535 71.2476 209.388 71.4773 208.103 71.4773Z" fill="white"/>
<path d="M216.985 53.5615H220.822L226.046 67.9957H225.344L229.541 53.5615H233.036L226.46 74.3605C225.86 76.2464 225.085 77.6548 224.137 78.5856C223.2 79.5285 222.023 80 220.606 80C219.813 80 219.05 79.8972 218.318 79.6917C217.597 79.4862 216.859 79.184 216.102 78.7851V75.6843C216.75 76.1436 217.375 76.4761 217.975 76.6816C218.576 76.8871 219.2 76.9899 219.849 76.9899C220.498 76.9899 221.05 76.7904 221.506 76.3915C221.975 76.0046 222.365 75.4848 222.677 74.832C223.002 74.1913 223.278 73.4901 223.506 72.7285L224.028 71.0058L216.985 53.5615Z" fill="white"/>
</svg>
